<svg width="40" height="43" viewBox="0 0 40 43" fill="none" xmlns="http://www.w3.org/2000/svg">
<g opacity="0.6">
<path d="M33.4561 27.0221C31.9624 25.1663 31.1024 22.8579 31.1024 20.4589V15.8421C31.1024 10.3653 27.255 5.74842 22.095 4.61684V2.44421C22.095 1.08632 21.0087 0 19.6508 0C18.2929 0 17.2066 1.08632 17.2066 2.44421V4.61684C12.0466 5.74842 8.19922 10.32 8.19922 15.8421V20.4589C8.19922 22.8579 7.38448 25.1663 5.84553 27.0221L3.80869 29.5116C2.40553 31.2316 3.62764 33.8568 5.84553 33.8568H33.4108C35.6287 33.8568 36.8961 31.2768 35.4476 29.5116L33.4561 27.0221Z" fill="white"/>
<path d="M4.12549 14.7106C4.39707 10.9537 6.02654 7.37793 8.78759 4.7074C9.60233 3.89266 9.60233 2.62529 8.83286 1.81056C8.06338 0.995821 6.75075 0.995821 5.93602 1.76529C2.45075 5.16003 0.368647 9.64108 0.00654141 14.3937C-0.0839849 15.5253 0.776015 16.5211 1.90759 16.5663C1.95286 16.5663 1.99812 16.5663 2.04338 16.5663C3.1297 16.6116 4.03496 15.7969 4.12549 14.7106Z" fill="white"/>
<path d="M33.4108 1.76529C32.596 0.995821 31.2834 0.995821 30.5139 1.81056C29.6992 2.62529 29.7445 3.93793 30.5592 4.7074C33.275 7.37793 34.9497 10.9537 35.2213 14.7106C35.3118 15.7969 36.2171 16.6116 37.2582 16.6116C37.3034 16.6116 37.3487 16.6116 37.3939 16.6116C38.5255 16.5211 39.3855 15.5706 39.295 14.439C38.9329 9.64108 36.8508 5.16003 33.4108 1.76529Z" fill="white"/>
<path d="M19.6508 43.0001C22.9097 43.0001 25.535 40.3748 25.535 37.1158H13.7665C13.7665 40.3748 16.3918 43.0001 19.6508 43.0001Z" fill="white"/>
</g>
</svg>
